# xmcd CD database file
#
# Track frame offsets:
#	150
#	24663
#	45650
#	63550
#	94038
#
# Disc length: 1536 seconds
#
# Revision: 0
# Processed by: cddbd v1.5.1PL0 Copyright (c) Steve Scherf et al.
# Submitted via: CDex 1.51
#
DISCID=3b05fe05
DTITLE=Leyona - Nu World
DYEAR=2005
DGENRE=Japanese Pop
TTITLE0=太陽は知ってる
TTITLE1=月影のビーチ
TTITLE2=レヨナのバナナ・ボート
TTITLE3=ローゼン
TTITLE4=パレード
EXTD=YEAR: 2005
EXTT0=
EXTT1=
EXTT2=
EXTT3=
EXTT4=
PLAYORDER=
